<?xml version="1.0" encoding="windows-1252"?>
<!-- Generator: Adobe Illustrator 19.0.0, SVG Export Plug-In . SVG Version: 6.00 Build 0)  -->
<svg xmlns="http://www.w3.org/2000/svg" xmlns:xlink="http://www.w3.org/1999/xlink" version="1.1" id="Layer_1" x="0px" y="0px" viewBox="0 0 349.935 349.935" style="enable-background:new 0 0 349.935 349.935;" xml:space="preserve" width="512" height="512">
<g>
	<path style="fill:#AD813E;" d="M151.984,38.209H38.36c-8.284,0-15,6.716-15,15v39.712c0,8.284,6.716,15,15,15h113.625   c8.284,0,15-6.716,15-15V53.209C166.984,44.925,160.268,38.209,151.984,38.209z"/>
	<path style="fill:#FDCC40;" d="M334.935,311.726H15c-8.284,0-15-6.716-15-15V95.921c0-8.284,6.716-15,15-15h319.935   c8.284,0,15,6.716,15,15v200.805C349.935,305.01,343.219,311.726,334.935,311.726z"/>
	<path style="fill:#DEB43A;" d="M174.968,311.726H15c-8.284,0-15-6.716-15-15V95.921c0-8.284,6.716-15,15-15h159.967   L174.968,311.726z"/>
</g>















</svg>