<svg xmlns="http://www.w3.org/2000/svg" xmlns:xlink="http://www.w3.org/1999/xlink" width="853.701" height="1149.154" viewBox="0 0 853.701 1149.154">
  <defs>
    <clipPath id="clip">
      <use xlink:href="#fill"/>
    </clipPath>
  </defs>
  <g id="Group_131" data-name="Group 131" transform="translate(-1066.299)">
    <rect id="Rectangle_17" data-name="Rectangle 17" width="848" height="1080" transform="translate(1072)" fill="#a0a3a5" opacity="0.18"/>
    <g id="Group_2" data-name="Group 2" transform="translate(1823.986 98.837)">
      <path id="Path_23" data-name="Path 23" d="M333.423,216.6a6.7,6.7,0,0,1-3.742-1.967l-.39-.385,17.041-17.041L330.216,181.1l-.337.337a7,7,0,0,0-1.967,3.785,8.2,8.2,0,1,1-9.274-9.483,6.725,6.725,0,0,0,3.742-1.962l.262-.262L304.6,155.46,293.29,166.765l.706.711a6.756,6.756,0,0,0,3.742,1.962,8.194,8.194,0,1,1-7,13.9,8.1,8.1,0,0,1-2.277-4.415,7,7,0,0,0-1.967-3.784l-.78-.786-8.365,8.365c6.457.8,10.931,6.206,10.9,13.363-.032,7.4-4.169,13.182-9.087,17.436L286.651,221l.535-.535a6.66,6.66,0,0,0,1.962-3.742A8.2,8.2,0,1,1,298.63,226a7,7,0,0,0-3.785,1.967l-.588.588,10.381,10.381,17.105-17.105.465.46a7,7,0,0,1,1.967,3.79,8.2,8.2,0,1,0,9.274-9.483Z" transform="translate(-277.35 -155.46)" fill="#eb7200"/>
      <path id="Path_24" data-name="Path 24" d="M333.423,216.6a6.7,6.7,0,0,1-3.742-1.967l-.39-.385,17.041-17.041L330.216,181.1l-.337.337a7,7,0,0,0-1.967,3.785,8.2,8.2,0,1,1-9.274-9.483,6.725,6.725,0,0,0,3.742-1.962l.262-.262L304.6,155.46,293.29,166.765l.706.711a6.756,6.756,0,0,0,3.742,1.962,8.194,8.194,0,1,1-7,13.9,8.1,8.1,0,0,1-2.277-4.415,7,7,0,0,0-1.967-3.784l-.78-.786-8.365,8.365c6.457.8,10.931,6.206,10.9,13.363-.032,7.4-4.169,13.182-9.087,17.436L286.651,221l.535-.535a6.66,6.66,0,0,0,1.962-3.742A8.2,8.2,0,1,1,298.63,226a7,7,0,0,0-3.785,1.967l-.588.588,10.381,10.381,17.105-17.105.465.46a7,7,0,0,1,1.967,3.79,8.2,8.2,0,1,0,9.274-9.483Z" transform="translate(-276.201 -155.46)" fill="none" stroke="#5e3314" stroke-linecap="round" stroke-linejoin="round" stroke-width="3.25"/>
    </g>
    <g id="Group_3" data-name="Group 3" transform="translate(1067.924 116.755)">
      <path id="Path_25" data-name="Path 25" d="M185.51,140.847a7.981,7.981,0,0,1-4.459,2.344,9.764,9.764,0,1,0,11.051,11.3,8.344,8.344,0,0,1,2.344-4.516l.268-.261L204.8,159.8a16.408,16.408,0,0,1,3.076-.293A16.026,16.026,0,0,1,222,167.945c2.7-5.021,8.018-8.065,14.114-8.435a16.409,16.409,0,0,1,3.026.089l9.994-9.962.936.936a8.344,8.344,0,0,1,2.344,4.51,9.65,9.65,0,0,0,2.713,5.261,9.771,9.771,0,1,0,8.338-16.561A8.051,8.051,0,0,1,259,141.446l-.841-.847,13.472-13.471-20.325-20.319,1.006-.994a8.427,8.427,0,0,1,4.516-2.344,9.771,9.771,0,1,0-11.3-11.051,8.019,8.019,0,0,1-2.344,4.459l-.924.924L221.88,77.42,201.574,97.726l.369.369a8.051,8.051,0,0,0,4.459,2.338,9.764,9.764,0,1,1-8.338,16.561,9.65,9.65,0,0,1-2.713-5.261,8.4,8.4,0,0,0-2.35-4.51l-.459-.459L172.16,127.147,185.714,140.7Z" transform="translate(-172.16 -77.42)" fill="#efac00"/>
      <path id="Path_28" data-name="Path 28" d="M185.51,140.847a7.981,7.981,0,0,1-4.459,2.344,9.764,9.764,0,1,0,11.051,11.3,8.344,8.344,0,0,1,2.344-4.516l.268-.261L204.8,159.8a16.408,16.408,0,0,1,3.076-.293A16.026,16.026,0,0,1,222,167.945c2.7-5.021,8.018-8.065,14.114-8.435a16.409,16.409,0,0,1,3.026.089l9.994-9.962.936.936a8.344,8.344,0,0,1,2.344,4.51,9.65,9.65,0,0,0,2.713,5.261,9.771,9.771,0,1,0,8.338-16.561A8.051,8.051,0,0,1,259,141.446l-.841-.847,13.472-13.471-20.325-20.319,1.006-.994a8.427,8.427,0,0,1,4.516-2.344,9.771,9.771,0,1,0-11.3-11.051,8.019,8.019,0,0,1-2.344,4.459l-.924.924L221.88,77.42,201.574,97.726l.369.369a8.051,8.051,0,0,0,4.459,2.338,9.764,9.764,0,1,1-8.338,16.561,9.65,9.65,0,0,1-2.713-5.261,8.4,8.4,0,0,0-2.35-4.51l-.459-.459L172.16,127.147,185.714,140.7Z" transform="translate(-172.16 -77.42)" fill="none" stroke="#7f421b" stroke-linecap="round" stroke-linejoin="round" stroke-width="3.25"/>
    </g>
    <text id="دمو_1" data-name="دمو 1" transform="translate(1405.811 202.014)" fill="#e3e8ec" font-size="16" font-family="YekanBakh-Medium, Yekan Bakh" font-weight="500" opacity="0"><tspan x="0" y="0">1</tspan><tspan y="0">دمو </tspan></text>
    <text id="دمو_1-2" data-name="دمو 1" transform="translate(1405.811 244.063)" fill="#e3e8ec" font-size="16" font-family="YekanBakh-Medium, Yekan Bakh" font-weight="500" opacity="0"><tspan x="0" y="0">1</tspan><tspan y="0">دمو </tspan></text>
    <g id="Rectangle_13" data-name="Rectangle 13" transform="translate(1856.811 174.55)" fill="#fff" stroke="#707070" stroke-width="1">
      <rect id="fill" width="1" stroke="none"/>
      <path d="M0,-0.49998999999479565h1M0.5,0v0.000010000005204346962M1,0.5h-1M0.5,0.000010000005204346962v-0.000010000005204346962" fill="none" clip-path="url(#clip)"/>
    </g>
    <path id="Path_34" data-name="Path 34" d="M198.7,123.5a3.42,3.42,0,0,0,.69-.51c.18-.15.34-.32.51-.49.34-.36.66-.74,1-1.11a4.169,4.169,0,0,1,.41-.43,1.43,1.43,0,0,0,.39-1,1.38,1.38,0,0,0-.39-1,1.35,1.35,0,0,0-1-.4,1.46,1.46,0,0,0-1,.4,12.937,12.937,0,0,0-.93,1,9.279,9.279,0,0,1-1.13,1.13l.27-.21a1.269,1.269,0,0,1-.27.18,1.4,1.4,0,0,0-.62.81,1.36,1.36,0,0,0,.14,1,1.33,1.33,0,0,0,.81.62,1.46,1.46,0,0,0,1-.14Z" transform="translate(994.67 144.726)" fill="#7f421b"/>
    <path id="Path_37" data-name="Path 37" d="M306.221,119.25c4.5-1.045,9.5-3.433,11.465-7.9a.892.892,0,0,0-.312-1.178.866.866,0,0,0-1.178.306c-1.783,4.089-6.312,6.159-10.421,7.108-1.083.248-.637,1.911.459,1.662Z" transform="translate(846.29 44.326)" fill="#7f421b"/>
    <path id="Path_40" data-name="Path 40" d="M301.843,137.5c2.815,2.548,5.21,5.516,7.771,8.319.752.815,1.962-.4,1.217-1.223-2.548-2.8-4.956-5.733-7.771-8.312C302.238,135.542,301.015,136.759,301.843,137.5Z" transform="translate(847.592 34.887)" fill="#7f421b"/>
    <path id="Path_41" data-name="Path 41" d="M317.428,153.674a1.516,1.516,0,0,1,.223.229l-.134-.172a1.561,1.561,0,0,1,.14.217.959.959,0,0,0,.516.395.936.936,0,0,0,.637-.083l.178-.134a.879.879,0,0,0,.217-.382.571.571,0,0,1,.032-.229.867.867,0,0,0-.115-.433,2.8,2.8,0,0,0-.3-.42,1.543,1.543,0,0,0-.2-.21.681.681,0,0,0-.28-.178.815.815,0,0,0-.637,0,.726.726,0,0,0-.28.178l-.134.178a.866.866,0,0,0-.115.433l.032.229a.879.879,0,0,0,.217.382Z" transform="translate(841.924 29.022)" fill="#7f421b"/>
    <path id="Path_49" data-name="Path 49" d="M.21,2.454a3.923,3.923,0,0,0,3.776.883A5.757,5.757,0,0,0,7.1,1,.664.664,0,0,0,5.952.33C4.9,1.875,2.686,2.91,1.146,1.517.519.943-.423,1.88.21,2.454Z" transform="translate(1889.232 978.902) rotate(3)" fill="#7f421b"/>
    <path id="Path_50" data-name="Path 50" d="M1.283,2.2A3.359,3.359,0,0,0,1.774.682a.682.682,0,0,0-.2-.49A.667.667,0,0,0,1.112,0a.677.677,0,0,0-.49.191.726.726,0,0,0-.2.49.9.9,0,0,1,0,.162V.667a1.776,1.776,0,0,1-.132.49A.459.459,0,0,1,.361,1c-.083.191-.181.373-.275.554a.687.687,0,0,0-.069.49.7.7,0,0,0,.3.4.677.677,0,0,0,.49.069A.667.667,0,0,0,1.2,2.2Z" transform="translate(1896.232 976.324) rotate(3)" fill="#7f421b"/>
    <path id="Path_53" data-name="Path 53" d="M.169,1.136a27.924,27.924,0,0,0,4.1,3.923.672.672,0,0,0,.907-.24.682.682,0,0,0-.235-.907c-.093-.059-.181-.123-.27-.186l-.157-.113h0c-.181-.142-.358-.294-.53-.446A13.223,13.223,0,0,1,3,2.185C2.376,1.528,1.773.841,1.131.194a.662.662,0,0,0-.937.937Z" transform="translate(1904.39 973.699) rotate(3)" fill="#7f421b"/>
    <path id="Path_77" data-name="Path 77" d="M305.19,255c.84-.5,1.69-1,2.58-1.44l.32-.14c.16-.08-.26.09-.09,0l.17-.06c.22-.09.44-.17.67-.24s.47-.13.7-.18l.38-.07h.19a1.56,1.56,0,0,0,1-.4,1.38,1.38,0,0,0,.39-1,1.344,1.344,0,0,0-1.35-1.35,11.46,11.46,0,0,0-3.53,1,29.226,29.226,0,0,0-2.74,1.51,1.36,1.36,0,0,0,1.37,2.34Z" transform="translate(1582.616 -44.573)" fill="#5e3314"/>
    <path id="Path_79" data-name="Path 79" d="M2.35,4.081c.56-.6,1.15-1.17,1.65-1.81a1,1,0,0,0,.28-.44,1.19,1.19,0,0,0,0-1A1,1,0,0,0,4,.391,1.38,1.38,0,0,0,3,0l-.36.05a1.41,1.41,0,0,0-.59.34C1.54,1.04.96,1.611.4,2.211a1.41,1.41,0,0,0-.4.95,1.14,1.14,0,0,0,.12.52,1.07,1.07,0,0,0,.28.44,1.34,1.34,0,0,0,1.91,0Z" transform="translate(1770.621 313.256) rotate(-45)" fill="#5f3548"/>
    <path id="Path_116" data-name="Path 116" d="M.992,1.758a3.12,3.12,0,0,0,.289-.211l.147-.132c.049-.049.088-.1.132-.147A3.122,3.122,0,0,0,1.772.978a.77.77,0,0,0,.069-.49.584.584,0,0,0-.123-.23A.491.491,0,0,0,1.532.091L1.375.022a.716.716,0,0,0-.353,0L.865.091a.692.692,0,0,0-.24.235A1.349,1.349,0,0,1,.531.464l.1-.132a1.784,1.784,0,0,1-.3.3l.132-.1L.321.63A.569.569,0,0,0,.134.8a.49.49,0,0,0-.118.226.54.54,0,0,0,0,.265.491.491,0,0,0,.078.245l.1.137a.677.677,0,0,0,.294.167l.177.025A.667.667,0,0,0,1,1.778Z" transform="translate(1891.154 1019.491) rotate(3)" fill="#00494c"/>
    <path id="Path_117" data-name="Path 117" d="M.02.853A7.635,7.635,0,0,0,1.491,4.472,5.154,5.154,0,0,0,4.924,6.286a.667.667,0,0,0,.662-.662.682.682,0,0,0-.662-.667l-.172-.029-.2-.044A4.617,4.617,0,0,1,4.1,4.761L3.923,4.7l-.118-.049c.064.029.059,0,0,0a1.357,1.357,0,0,1-.324-.167c-.1-.059-.235-.147-.348-.226h0L3.065,4.2a1.831,1.831,0,0,1-.152-.132,3.89,3.89,0,0,1-.284-.284l-.113-.132a.581.581,0,0,1-.074-.088c.034.049.039.059,0,0a5.4,5.4,0,0,1-.427-.677c-.064-.123-.123-.25-.181-.383.049.108,0-.039-.029-.069l-.074-.2A9.266,9.266,0,0,1,1.3.485.662.662,0,0,0,.485.024.682.682,0,0,0,.02.838Z" transform="translate(1896.848 1025.927) rotate(3)" fill="#00494c"/>
    <path id="Path_119" data-name="Path 119" d="M1.153,2.712q.662-.794,1.354-1.559A.691.691,0,0,0,2.7.662.667.667,0,0,0,2.506.2a.682.682,0,0,0-.49-.2A.662.662,0,0,0,1.55.2C1.089.687.633,1.226.191,1.751A.736.736,0,0,0,0,2.241.652.652,0,0,0,.662,2.9.647.647,0,0,0,1.153,2.712Z" transform="translate(1899.697 1011.284) rotate(3)" fill="#00494c"/>
    <path id="Path_120" data-name="Path 120" d="M1.382.162A3.673,3.673,0,0,0,.342,2.506C.2,3.462.107,4.467.048,5.414A15.377,15.377,0,0,0,.94,12.255c.324.775,1.609.436,1.28-.353a14.158,14.158,0,0,1-.873-6.11c.044-.868.137-1.731.23-2.594a3.1,3.1,0,0,1,.736-2.1C2.966.544,2.024-.373,1.377.162Z" transform="translate(1896.219 988.026) rotate(3)" fill="#00494c"/>
    <path id="Path_121" data-name="Path 121" d="M0,.817A8.077,8.077,0,0,0,1.015,2.666a.657.657,0,0,0,.907.24.652.652,0,0,0,.24-.888A8.688,8.688,0,0,1,1.3.547l.064.162C1.334.63,1.3.557,1.28.483a.706.706,0,0,0-.3-.4A.7.7,0,0,0,.486.017.667.667,0,0,0,.093.326a.642.642,0,0,0-.069.49Z" transform="translate(1897.557 1002.467) rotate(3)" fill="#00494c"/>
    <path id="Path_127" data-name="Path 127" d="M.14,2.037c0,.07.1.13.15.2l.15.19.1.1a2,2,0,0,1,.2.21l-.21-.28a.721.721,0,0,1,.11.19L.5,2.317V2.4h0l.14.32a1,1,0,0,0,.35.38,1,1,0,0,0,.46.24,1.759,1.759,0,0,0,.46.06h0l.37-.05h0a1.65,1.65,0,0,0,.41-.18,1.39,1.39,0,0,0,.43-.4,1.191,1.191,0,0,0,.16-.23,2.873,2.873,0,0,0,.17-.44,4.613,4.613,0,0,1,.07-.5,1.17,1.17,0,0,0-.12-.52,1,1,0,0,0-.28-.43.9.9,0,0,0-.44-.28.93.93,0,0,0-.52-.12H1.8A1.28,1.28,0,0,0,1.21.6L1,.867a1.27,1.27,0,0,0-.19.68.22.22,0,0,1,0,.08l.05-.36a1.16,1.16,0,0,1,0,.18c0-.11.09-.22.13-.32a.22.22,0,0,1-.05.08l.21-.27a.12.12,0,0,1-.05.05l.28-.21H1.32l.33-.14h.5l.94.95a3.38,3.38,0,0,0-.18-.44.471.471,0,0,0,0-.1C2.83.927,2.73.807,2.64.7L2.58.627Q2.421.544,2.27.447l.21.28a.429.429,0,0,1,0-.07,1.27,1.27,0,0,0-.35-.38,1,1,0,0,0-.46-.24,1,1,0,0,0-.54,0A1,1,0,0,0,.62.2L.35.407a1.4,1.4,0,0,0-.35.6v.36a1.37,1.37,0,0,0,.19.68Z" transform="translate(1891.497 1026.602) rotate(3)" fill="#00494c"/>
    <path id="Path_129" data-name="Path 129" d="M114.7,208.35a7,7,0,0,0,.65-.57,5.177,5.177,0,0,0,.47-.58,4.37,4.37,0,0,0,.33-.69,1.4,1.4,0,0,0-.14-1,1.437,1.437,0,0,0-.8-.62h-.36a1.37,1.37,0,0,0-.69.18l-.27.22a1.31,1.31,0,0,0-.35.59h0l.14-.32a2.3,2.3,0,0,1-.25.43l.21-.27a4.919,4.919,0,0,1-.85.79,1.56,1.56,0,0,0-.39,1,1.567,1.567,0,0,0,.39.95l.28.21a1.27,1.27,0,0,0,.68.19l.36-.05a1.31,1.31,0,0,0,.6-.35Z" transform="translate(1740.67 773.382)" fill="#00494c"/>
    <path id="Path_130" data-name="Path 130" d="M103.45,189a19,19,0,0,1-1.72-12.23,17.9,17.9,0,0,1,2.17-6,28.1,28.1,0,0,1,3.89-4.55c1.2-1.26-.71-3.18-1.91-1.92a32.38,32.38,0,0,0-4.32,5.11,22.386,22.386,0,0,0-.45,20.98c.76,1.57,3.09.2,2.34-1.37Z" transform="translate(1740.67 773.382)" fill="#00494c"/>
    <path id="Path_131" data-name="Path 131" d="M113.13,163.12c.42-.07.83-.2,1.26-.26h-.36a3.252,3.252,0,0,1,.54,0,1,1,0,0,0,.52-.11,1.14,1.14,0,0,0,.44-.28,1.07,1.07,0,0,0,.28-.44,1,1,0,0,0,.11-.52,1.34,1.34,0,0,0-.39-.95l-.28-.22a1.36,1.36,0,0,0-.68-.18,4.25,4.25,0,0,0-1.23.12c-.31.07-.61.15-.92.2a1.19,1.19,0,0,0-.47.25,1,1,0,0,0-.34.38.9.9,0,0,0-.16.5,1,1,0,0,0,0,.54,1.4,1.4,0,0,0,.62.81l.33.13a1.23,1.23,0,0,0,.71,0Z" transform="translate(1740.67 773.382)" fill="#00494c"/>
    <path id="Path_132" data-name="Path 132" d="M2.523,17.352A48.456,48.456,0,0,1,6,13.242c1.27-1.41,2.49-2.87,3.8-4.25,1.16-1.22,2.36-2.35,3.61-3.47a10.5,10.5,0,0,0,2.92-3.82,1.36,1.36,0,0,0-.95-1.66,1.38,1.38,0,0,0-1.66.94c-.51,1.29-1.82,2.27-2.83,3.16A48.091,48.091,0,0,0,7.313,7.7c-1.23,1.32-2.39,2.7-3.59,4a49.51,49.51,0,0,0-3.54,4.25,1.353,1.353,0,1,0,2.34,1.36Z" transform="translate(1885.062 932.09) rotate(3)" fill="#00494c"/>
    <path id="Path_133" data-name="Path 133" d="M2.4,3.871c.49-.57,1.14-1,1.66-1.52a1.413,1.413,0,0,0,0-1.95,1.35,1.35,0,0,0-1-.4,1.37,1.37,0,0,0-1,.4c-.52.54-1.17.94-1.66,1.52a1.5,1.5,0,0,0-.4,1,.93.93,0,0,0,.12.52,1,1,0,0,0,.28.44,1.34,1.34,0,0,0,1.91,0Z" transform="translate(1903.315 927.741) rotate(3)" fill="#00494c"/>
    <path id="Path_134" data-name="Path 134" d="M2.537,14.8c3.73-5,9.61-7.73,13.55-12.49a1.4,1.4,0,0,0,0-1.92,1.37,1.37,0,0,0-1.91,0c-4.1,5-10.09,7.87-14,13a1.37,1.37,0,0,0,.49,1.85,1.38,1.38,0,0,0,1.85-.48Z" transform="translate(1883.545 948.528) rotate(3)" fill="#00494c"/>
    <path id="Path_135" data-name="Path 135" d="M2.28,3.51a8.1,8.1,0,0,1,1-.89L3,2.84l.44-.32a.92.92,0,0,0,.38-.35,1.079,1.079,0,0,0,.25-1,1,1,0,0,0-.16-.5A1.36,1.36,0,0,0,3.1.05L2.74,0a1.27,1.27,0,0,0-.68.19A8.62,8.62,0,0,0,.39,1.59a1,1,0,0,0-.28.44,1.19,1.19,0,0,0,0,1,1,1,0,0,0,.28.44,1.38,1.38,0,0,0,1,.39h.36a1.41,1.41,0,0,0,.59-.34Z" transform="translate(1903.702 941.991) rotate(3)" fill="#00494c"/>
    <path id="Path_136" data-name="Path 136" d="M119.54,173.12a30.357,30.357,0,0,1,3.16.12h.48a2.523,2.523,0,0,1,.65.14l.62.17.32.12c.33.11-.17-.1.07,0a6.629,6.629,0,0,1,.59.31l.24.15c.14.09.21.15,0,0a4.41,4.41,0,0,1,.51.46,2.091,2.091,0,0,1,.2.22s.31.41.12.13a8.42,8.42,0,0,1,.74,1.27l.1.22h0l.15.44c.11.31.2.63.29.95a1.354,1.354,0,0,0,2.61-.72,8.42,8.42,0,0,0-4.12-5.72,15.55,15.55,0,0,0-6.76-1.06,1.36,1.36,0,0,0,0,2.71Z" transform="translate(1740.67 773.382)" fill="#00494c"/>
    <path id="Path_137" data-name="Path 137" d="M130.2,183.29c.17.88.37,1.74.6,2.6a1.43,1.43,0,0,0,.62.81,1.35,1.35,0,0,0,1,.13,1.33,1.33,0,0,0,.81-.62,1.4,1.4,0,0,0,.14-1c-.23-.86-.43-1.72-.6-2.59a1.36,1.36,0,0,0-.62-.81,1.4,1.4,0,0,0-1-.14,1.37,1.37,0,0,0-.81.62,1.51,1.51,0,0,0-.14,1Z" transform="translate(1740.67 773.382)" fill="#00494c"/>
    <path id="Path_140" data-name="Path 140" d="M3.055.074a5.022,5.022,0,0,0-1.79,2.32A13.9,13.9,0,0,0,.284,5.268,8.851,8.851,0,0,0,.775,11.2c.378.765,1.52.093,1.143-.672a7.512,7.512,0,0,1-.338-4.9,12.721,12.721,0,0,1,.785-2.413A4,4,0,0,1,3.737,1.246C4.433.839,3.8-.347,3.07.1Z" transform="translate(1901.268 986.753) rotate(3)" fill="#00494c"/>
    <path id="Path_141" data-name="Path 141" d="M0,.816c.108.363.27.706.383,1.069a.7.7,0,0,0,.3.4.667.667,0,0,0,.907-.24.687.687,0,0,0,.069-.49C1.55,1.188,1.388.845,1.28.482a.7.7,0,0,0-.3-.4A.662.662,0,0,0,.486.021a.652.652,0,0,0-.4.3A.667.667,0,0,0,.02.816Z" transform="translate(1901.588 999.674) rotate(3)" fill="#00494c"/>
    <path id="Path_142" data-name="Path 142" d="M.085,1A18.35,18.35,0,0,0,1.233,2.6c.181.235.363.466.549.7l.284.363c-.034-.049-.044-.054,0,0a.92.92,0,0,1,.083.113c.025.039.1.132.152.2a.726.726,0,0,0,.4.3A.667.667,0,0,0,3.45,3.3c-.392-.525-.8-1.035-1.206-1.55l-.069-.083c-.044-.054-.029-.039,0,0-.044-.054-.088-.113-.128-.172s-.186-.24-.275-.368C1.581.868,1.4.6,1.233.324A.672.672,0,0,0,.326.088.677.677,0,0,0,.085,1Z" transform="translate(1903.856 1004.043) rotate(3)" fill="#00494c"/>
    <path id="Path_143" data-name="Path 143" d="M328.212,133.946a1.446,1.446,0,1,1-1.446-1.446A1.446,1.446,0,0,1,328.212,133.946Z" transform="translate(838.969 36.178)" fill="#efac00"/>
    <path id="Path_144" data-name="Path 144" d="M334.825,120.976a3.943,3.943,0,1,1-3.936-3.936,3.943,3.943,0,0,1,3.936,3.936Z" transform="translate(838.381 41.79)" fill="#efac00"/>
    <ellipse id="Ellipse_1" data-name="Ellipse 1" cx="1.045" cy="1.045" rx="1.045" ry="1.045" transform="translate(1171.582 172.034)" fill="#efac00"/>
    <path id="Path_145" data-name="Path 145" d="M277.48,81.21a3.09,3.09,0,1,1-3.09-3.09,3.09,3.09,0,0,1,3.09,3.09Z" transform="translate(994.67 143.33)" fill="#efac00"/>
    <path id="Path_146" data-name="Path 146" d="M286.4,67.39a4.73,4.73,0,1,1-4.73-4.73A4.73,4.73,0,0,1,286.4,67.39Z" transform="translate(994.67 143.33)" fill="#efac00"/>
    <circle id="Ellipse_2" data-name="Ellipse 2" cx="0.91" cy="0.91" r="0.91" transform="translate(1260.15 215.631)" fill="#efac00"/>
    <path id="Path_147" data-name="Path 147" d="M196,109.58a2.37,2.37,0,1,1-2.37-2.36A2.37,2.37,0,0,1,196,109.58Z" transform="translate(994.67 144.665)" fill="#efac00"/>
    <circle id="Ellipse_3" data-name="Ellipse 3" cx="3.18" cy="3.18" r="3.18" transform="translate(1190.68 237.439)" fill="#efac00"/>
    <circle id="Ellipse_4" data-name="Ellipse 4" cx="5.73" cy="5.73" r="5.73" transform="translate(1172.67 240.925)" fill="#efac00"/>
    <path id="Path_148" data-name="Path 148" d="M221.551,57.154a1.49,1.49,0,1,1-1.484-1.484A1.49,1.49,0,0,1,221.551,57.154Z" transform="translate(940.683 123.345)" fill="#efac00"/>
    <path id="Path_149" data-name="Path 149" d="M151.14,104.65a3.77,3.77,0,1,1-3.76-3.76,3.77,3.77,0,0,1,3.76,3.76Z" transform="translate(994.67 144.634)" fill="#efac00"/>
    <circle id="Ellipse_5" data-name="Ellipse 5" cx="2.87" cy="2.87" r="2.87" transform="translate(1334.5 210.141)" fill="#efac00"/>
    <circle id="Ellipse_6" data-name="Ellipse 6" cx="1.63" cy="1.63" r="1.63" transform="translate(1788.773 207.207) rotate(-45)" fill="#eb7200"/>
    <circle id="Ellipse_7" data-name="Ellipse 7" cx="8.33" cy="8.33" r="8.33" transform="matrix(-0.53, -0.848, 0.848, -0.53, 1790.785, 205.267)" fill="#eb7200"/>
    <circle id="Ellipse_8" data-name="Ellipse 8" cx="1.94" cy="1.94" r="1.94" transform="translate(1803.334 207.921) rotate(-45)" fill="#eb7200"/>
    <circle id="Ellipse_9" data-name="Ellipse 9" cx="4.79" cy="4.79" r="4.79" transform="translate(1680.25 309.4) rotate(-45)" fill="#eb7200"/>
    <circle id="Ellipse_10" data-name="Ellipse 10" cx="1.94" cy="1.94" r="1.94" transform="translate(1680.249 246.896)" fill="#eb7200"/>
    <path id="Path_150" data-name="Path 150" d="M392.82,163.41a5,5,0,1,1-5-5,5,5,0,0,1,5,5Z" transform="translate(1310.679 77.423)" fill="#eb7200"/>
    <circle id="Ellipse_11" data-name="Ellipse 11" cx="2.14" cy="2.14" r="2.14" transform="translate(1791.511 278.595) rotate(-45)" fill="#eb7200"/>
    <path id="Path_151" data-name="Path 151" d="M6.94,3.47A3.46,3.46,0,1,1,5.927,1.013,3.47,3.47,0,0,1,6.94,3.47Z" transform="translate(1786.461 291.2) rotate(-45)" fill="#eb7200"/>
    <path id="Path_152" data-name="Path 152" d="M3.26,1.63A1.63,1.63,0,1,1,1.63,0,1.63,1.63,0,0,1,3.26,1.63Z" transform="translate(1805.354 284.099) rotate(-45)" fill="#eb7200"/>
    <circle id="Ellipse_12" data-name="Ellipse 12" cx="1.97" cy="1.97" r="1.97" transform="translate(1762.423 301.74) rotate(-45)" fill="#eb7200"/>
    <path id="Path_153" data-name="Path 153" d="M4.3,2.15A2.15,2.15,0,1,1,2.15,0,2.15,2.15,0,0,1,4.3,2.15Z" transform="translate(1838.809 219.935) rotate(-45)" fill="#eb7200"/>
    <circle id="Ellipse_14" data-name="Ellipse 14" cx="8.26" cy="8.26" r="8.26" transform="translate(1232.487 844.56)" fill="#c51670"/>
    <path id="Path_154" data-name="Path 154" d="M332.21,350.45a2.55,2.55,0,1,1-2.55-2.54,2.55,2.55,0,0,1,2.55,2.54Z" transform="translate(927.177 491.285)" fill="#c51670"/>
    <circle id="Ellipse_15" data-name="Ellipse 15" cx="2.22" cy="2.22" r="2.22" transform="translate(1256.637 853.035)" fill="#c51670"/>
    <path id="Path_160" data-name="Path 160" d="M4.46,2.24A2.23,2.23,0,1,1,3.81.657,2.23,2.23,0,0,1,4.46,2.24Z" transform="translate(1880.386 926.029) rotate(3)" fill="#00999a"/>
    <circle id="Ellipse_22" data-name="Ellipse 22" cx="6.69" cy="6.69" r="6.69" transform="translate(1879.77 908.113) rotate(3)" fill="#00999a"/>
    <path id="Path_161" data-name="Path 161" d="M162.21,146.79a1.41,1.41,0,1,1-.413-1.007A1.42,1.42,0,0,1,162.21,146.79Z" transform="translate(994.67 144.865)" fill="#00999a"/>
    <path id="Path_163" data-name="Path 163" d="M65.41,159a3.23,3.23,0,1,1-3.23-3.23A3.23,3.23,0,0,1,65.41,159Z" transform="translate(1740.67 773.382)" fill="#00999a"/>
    <path id="Path_176" data-name="Path 176" d="M2.027,6.444a5.29,5.29,0,0,0,1.76-2.23,20.678,20.678,0,0,0,1-2.5,1.354,1.354,0,0,0-2.61-.72c-.17.51-.36,1-.57,1.52l.14-.32a8.1,8.1,0,0,1-1,1.85l.21-.27a2.4,2.4,0,0,1-.44.46l.27-.21-.12.08a1.372,1.372,0,0,0-.49,1.86,1.39,1.39,0,0,0,1.86.48Z" transform="translate(1171.582 979.498) rotate(180)" fill="#5f3548"/>
    <path id="Path_181" data-name="Path 181" d="M8.52,4.26A4.26,4.26,0,1,1,4.26,0,4.26,4.26,0,0,1,8.52,4.26Z" transform="translate(1168.444 1056.321) rotate(180)" fill="#c51670"/>
    <path id="Path_182" data-name="Path 182" d="M2.62,1.3A1.31,1.31,0,1,1,1.31,0,1.31,1.31,0,0,1,2.62,1.3Z" transform="translate(1153.963 1052.472) rotate(180)" fill="#c51670"/>
    <path id="Path_46" data-name="Path 46" d="M1,1.333c.162-.083-.069,0,.034,0h.275a4.213,4.213,0,0,1,.726.206,7.8,7.8,0,0,1,1.324.593A11.339,11.339,0,0,1,5.69,4.3c.588.623,1.525-.319.942-.937A11.368,11.368,0,0,0,3.8.863,10.3,10.3,0,0,0,2.169.186,2.369,2.369,0,0,0,.33.186.664.664,0,0,0,1,1.333Z" transform="translate(1912.033 985.575) rotate(3)" fill="#7f421b"/>
    <path id="Path_97" data-name="Path 97" d="M.3,1.266A78.753,78.753,0,0,0,7.9,6.194c.76.383,1.432-.76.667-1.148A77.56,77.56,0,0,1,.971.118C.26-.372-.407.795.3,1.266Z" transform="translate(1911.112 1011.15) rotate(3)" fill="#5f3548"/>
    <path id="Path_104" data-name="Path 104" d="M.354,1.224q.206.1.4.221l.181.128.088.064c.034.024.128.123,0,0,.216.211.49.4.711.6A6.669,6.669,0,0,0,3.409,3.4a.75.75,0,0,0,.49.069.691.691,0,0,0,.4-.309.672.672,0,0,0-.24-.907,4.193,4.193,0,0,1-.848-.49L3.134,1.71c-.128-.093.113.093,0,0l-.181-.147-.368-.314A7.185,7.185,0,0,0,1,.087.677.677,0,0,0,.089.322a.667.667,0,0,0,.24.907Z" transform="translate(1914.885 1020.042) rotate(3)" fill="#5f3548"/>
    <path id="Path_21" data-name="Path 21" d="M268.717,280.918a9.178,9.178,0,0,1,4.96-2.578,10.748,10.748,0,1,0-12.429-12.156,8.73,8.73,0,0,1-2.571,4.9l-.7.7-9.809-9.809a70.735,70.735,0,0,1-21.236,12.107A70.259,70.259,0,0,1,205.793,261.6l-8.723,8.709.932.932a8.814,8.814,0,0,0,4.9,2.571,10.741,10.741,0,1,1-12.156,12.429,9.108,9.108,0,0,0-2.606-4.932l-1.03-1.03L172.1,295.3l23.66,23.653-.168.168a8.821,8.821,0,0,1-4.9,2.578,10.741,10.741,0,1,0,12.17,12.429,9.269,9.269,0,0,1,2.578-4.967l.266-.266,21.124,21.124,22.532-22.532-.624-.617a9.192,9.192,0,0,0-4.96-2.585,10.615,10.615,0,0,1-5.787-2.985,10.748,10.748,0,1,1,18.216-9.171,8.835,8.835,0,0,0,2.571,4.9l.525.518L281.546,295.3l-13.6-13.613Z" transform="translate(906.348 759.141)" fill="#c51670"/>
    <path id="Path_22" data-name="Path 22" d="M268.717,280.918a9.178,9.178,0,0,1,4.96-2.578,10.748,10.748,0,1,0-12.429-12.156,8.73,8.73,0,0,1-2.571,4.9l-.7.7-9.809-9.809a70.735,70.735,0,0,1-21.236,12.107A70.259,70.259,0,0,1,205.793,261.6l-8.723,8.709.932.932a8.814,8.814,0,0,0,4.9,2.571,10.741,10.741,0,1,1-12.156,12.429,9.108,9.108,0,0,0-2.606-4.932l-1.03-1.03L172.1,295.3l23.66,23.653-.168.168a8.821,8.821,0,0,1-4.9,2.578,10.741,10.741,0,1,0,12.17,12.429,9.269,9.269,0,0,1,2.578-4.967l.266-.266,21.124,21.124,22.532-22.532-.624-.617a9.192,9.192,0,0,0-4.96-2.585,10.615,10.615,0,0,1-5.787-2.985,10.748,10.748,0,1,1,18.216-9.171,8.835,8.835,0,0,0,2.571,4.9l.525.518L281.546,295.3l-13.6-13.613Z" transform="translate(906.348 759.141)" fill="none" stroke="#5f3548" stroke-linecap="round" stroke-linejoin="round" stroke-width="3.25"/>
    <path id="Path_26" data-name="Path 26" d="M143.531,222.252a6.375,6.375,0,0,1,1.8,3.472A7.523,7.523,0,1,0,153.854,217a6.169,6.169,0,0,1-3.433-1.8l-.642-.652,6.135-6.13c-4.35-3.884-8.052-9.1-8.406-15.732-.319-6,4.217-11,9.965-12.108l-7.768-7.768-.206.2a6.424,6.424,0,0,0-1.8,3.477,7.523,7.523,0,1,1-8.509-8.7,6.145,6.145,0,0,0,3.433-1.8l.137-.132L132.32,155.42,116.75,171l-.348-.353a6.145,6.145,0,0,1-1.8-3.433,7.518,7.518,0,1,0-8.7,8.508,6.424,6.424,0,0,1,3.477,1.8l.417.417L94,193.74l15.693,15.693.432-.427a6.169,6.169,0,0,0,1.8-3.433,7.518,7.518,0,1,1,8.7,8.508,6.375,6.375,0,0,0-3.472,1.8l-.49.49,15.649,15.649,10.509-10.509Z" transform="translate(1752.46 806.35)" fill="#00999a"/>
    <path id="Path_27" data-name="Path 27" d="M143.531,222.252a6.375,6.375,0,0,1,1.8,3.472A7.523,7.523,0,1,0,153.854,217a6.169,6.169,0,0,1-3.433-1.8l-.642-.652,6.135-6.13c-4.35-3.884-8.052-9.1-8.406-15.732-.319-6,4.217-11,9.965-12.108l-7.768-7.768-.206.2a6.424,6.424,0,0,0-1.8,3.477,7.523,7.523,0,1,1-8.509-8.7,6.145,6.145,0,0,0,3.433-1.8l.137-.132L132.32,155.42,116.75,171l-.348-.353a6.145,6.145,0,0,1-1.8-3.433,7.518,7.518,0,1,0-8.7,8.508,6.424,6.424,0,0,1,3.477,1.8l.417.417L94,193.74l15.693,15.693.432-.427a6.169,6.169,0,0,0,1.8-3.433,7.518,7.518,0,1,1,8.7,8.508,6.375,6.375,0,0,0-3.472,1.8l-.49.49,15.649,15.649,10.509-10.509Z" transform="translate(1752.46 806.35)" fill="none" stroke="#00494c" stroke-linecap="round" stroke-linejoin="round" stroke-width="3.25"/>
    <path id="Path_110" data-name="Path 110" d="M138.38,288.64c5.74,4.89,10,11.2,15.44,16.41,1.26,1.2,3.17-.71,1.91-1.91-5.43-5.21-9.7-11.52-15.44-16.41C138.97,285.61,137.05,287.51,138.38,288.64Z" transform="translate(1740.67 777.465)" fill="#00494c"/>
    <path id="Path_112" data-name="Path 112" d="M163.16,254.455c.025.039.123.265.074.132a2.533,2.533,0,0,1,.088.25c.059.2.093.4.132.6s0-.064,0,.064v.177l.029.358a6.7,6.7,0,0,0,.025.711c0,.888-.064,1.775-.128,2.658a.662.662,0,0,0,1.324,0c.069-.937.142-1.868.128-2.805a5.959,5.959,0,0,0-.554-2.815.667.667,0,0,0-1.148.672Z" transform="translate(1717.266 756.369)" fill="#00494c"/>
    <path id="Path_113" data-name="Path 113" d="M148.28,283.35a96.465,96.465,0,0,1,7.73,8.56,1.37,1.37,0,0,0,1.92,0,1.39,1.39,0,0,0,0-1.91,96.7,96.7,0,0,0-7.74-8.57,1.354,1.354,0,0,0-1.91,1.92Z" transform="translate(1740.67 777.465)" fill="#00494c"/>
    <path id="Path_114" data-name="Path 114" d="M159.956,295.432a8.823,8.823,0,0,1,.677.74.451.451,0,0,0,.211.137.593.593,0,0,0,.515,0,.451.451,0,0,0,.211-.137.662.662,0,0,0,.2-.466v-.177a.643.643,0,0,0-.172-.294,7.486,7.486,0,0,0-.677-.745.544.544,0,0,0-.211-.137.53.53,0,0,0-.26-.054.7.7,0,0,0-.49.191.662.662,0,0,0-.2.49.682.682,0,0,0,.2.49Z" transform="translate(1718.949 735.576)" fill="#00494c"/>
    <path id="Path_115" data-name="Path 115" d="M175.933,293.8c1.045-1.28,2.226-2.452,3.369-3.619.49-.515,1.01-1.01,1.545-1.5a8.563,8.563,0,0,0,1.471-1.658c.466-.716-.682-1.383-1.148-.667a7.846,7.846,0,0,1-1.363,1.471c-.539.49-1.045.981-1.55,1.51-1.118,1.157-2.266,2.28-3.281,3.531a.682.682,0,0,0,0,.937.662.662,0,0,0,.937,0Z" transform="translate(1711.289 739.779)" fill="#00494c"/>
    <path id="Path_122" data-name="Path 122" d="M103.53,236.6c.22.14,0,0,.06,0a1,1,0,0,1,.17.18c.14.15.26.32.39.49.51.63,1.07,1.23,1.6,1.85,1.12,1.29,2.22,2.59,3.33,3.89s2.14,2.47,3.26,3.66,2.29,2.36,3.35,3.63a1.36,1.36,0,0,0,1.91,0,1.4,1.4,0,0,0,0-1.92c-1.06-1.26-2.22-2.43-3.35-3.62s-2.31-2.56-3.43-3.87-2.21-2.6-3.33-3.89a14,14,0,0,0-2.6-2.78c-1.46-.95-2.82,1.4-1.36,2.34Z" transform="translate(1740.67 777.465)" fill="#00494c"/>
    <path id="Path_123" data-name="Path 123" d="M119.41,254.62a7.823,7.823,0,0,1,.67.75l-.21-.27a7.07,7.07,0,0,1,.44.63,1.48,1.48,0,0,0,.81.62,1.1,1.1,0,0,0,.54,0,1,1,0,0,0,.5-.16,1.33,1.33,0,0,0,.62-.81v-.36a1.27,1.27,0,0,0-.19-.68c-.22-.34-.46-.67-.71-1a5.149,5.149,0,0,0-.6-.66,1,1,0,0,0-.44-.28,1.19,1.19,0,0,0-1,0,1,1,0,0,0-.44.28,1.34,1.34,0,0,0-.39.95v.36a1.38,1.38,0,0,0,.34.6Z" transform="translate(1740.67 777.465)" fill="#00494c"/>
    <path id="Path_124" data-name="Path 124" d="M104,251.54a9.91,9.91,0,0,0,2.49,3.33c1,1,2,2,3,3.06,1.12,1.22,2.22,2.47,3.37,3.67.9.95,2.12,1.68,2.79,2.83a1.36,1.36,0,0,0,2.34-1.37,14.641,14.641,0,0,0-2.81-3c-1.16-1.1-2.21-2.35-3.29-3.54s-1.92-2.15-3-3.14a9.12,9.12,0,0,1-2.27-2.59,1.39,1.39,0,0,0-1.66-.95,1.37,1.37,0,0,0-.95,1.67Z" transform="translate(1740.67 777.465)" fill="#00494c"/>
    <path id="Path_125" data-name="Path 125" d="M118.59,268.15a7,7,0,0,1,.85.87l-.21-.27a3.3,3.3,0,0,1,.39.65,1.384,1.384,0,0,0,1.85.45,1.34,1.34,0,0,0,.62-.8v-.36A1.28,1.28,0,0,0,122,268a4.43,4.43,0,0,0-.73-1.09,7.93,7.93,0,0,0-.72-.7,1.07,1.07,0,0,0-.44-.28,1.14,1.14,0,0,0-.52-.12,1.17,1.17,0,0,0-.52.12,1,1,0,0,0-.43.28,1.35,1.35,0,0,0-.4,1,1.31,1.31,0,0,0,.4.95Z" transform="translate(1740.67 777.465)" fill="#00494c"/>
    <path id="Path_126" data-name="Path 126" d="M139.35,259c.86-2.58,2.14-5,4.68-6.25a6.88,6.88,0,0,1,1.89-.57,12.921,12.921,0,0,1,1.46-.18,10.619,10.619,0,0,1,1.87,0,4.421,4.421,0,0,1,.64.12s.38.14.25.08c0,0,.36.22.21.1a1.38,1.38,0,0,0,1.91,0,1.35,1.35,0,0,0,0-1.91,6.31,6.31,0,0,0-4.44-1.11,13.53,13.53,0,0,0-4.79,1,10.76,10.76,0,0,0-4.12,3.45,15.54,15.54,0,0,0-2.17,4.58c-.55,1.66,2.07,2.37,2.61.72Z" transform="translate(1740.67 777.465)" fill="#00494c"/>
    <path id="Path_128" data-name="Path 128" d="M99.86,223.55a34.39,34.39,0,0,1,5.51-5.41,30,30,0,0,0,5.53-5.78,1.35,1.35,0,0,0-.48-1.85,1.38,1.38,0,0,0-1.85.48,29.33,29.33,0,0,1-5.38,5.47,35.67,35.67,0,0,0-5.67,5.72A1.37,1.37,0,0,0,98,224a1.4,1.4,0,0,0,1.86-.48Z" transform="translate(1740.67 777.465)" fill="#00494c"/>
    <circle id="Ellipse_17" data-name="Ellipse 17" cx="8.63" cy="8.63" r="8.63" transform="translate(1859.541 1071.827) rotate(-23)" fill="#00999a"/>
    <circle id="Ellipse_18" data-name="Ellipse 18" cx="1.71" cy="1.71" r="1.71" transform="translate(1868.22 1062.666)" fill="#00999a"/>
    <circle id="Ellipse_20" data-name="Ellipse 20" cx="3.79" cy="3.79" r="3.79" transform="translate(1818.689 1002.725)" fill="#00999a"/>
    <circle id="Ellipse_21" data-name="Ellipse 21" cx="7.66" cy="7.66" r="7.66" transform="translate(1796.52 994.234)" fill="#00999a"/>
    <circle id="Ellipse_23" data-name="Ellipse 23" cx="4.84" cy="4.84" r="4.84" transform="translate(1801.42 1065.246)" fill="#00999a"/>
    <path id="Path_162" data-name="Path 162" d="M76.53,270.2a1.8,1.8,0,1,1-1.8-1.79,1.8,1.8,0,0,1,1.8,1.79Z" transform="translate(1740.67 777.465)" fill="#00999a"/>
    <path id="Path_171" data-name="Path 171" d="M.388,2.326c3.67,4.28,6.91,9,11.47,12.4a1.36,1.36,0,0,0,1.85-.48,1.38,1.38,0,0,0-.48-1.85C8.878,9.146,5.8,4.486,2.3.4A1.35,1.35,0,0,0,.388.4a1.37,1.37,0,0,0,0,1.91Z" transform="translate(1212.815 1029.387) rotate(180)" fill="#5f3548"/>
    <path id="Path_172" data-name="Path 172" d="M.354,2.4c1.07,1.07,2.17,2.12,3.3,3.13a1.41,1.41,0,0,0,.95.4,1.37,1.37,0,0,0,1-.4,1.39,1.39,0,0,0,.4-1,1.37,1.37,0,0,0-.4-1c-1.13-1-2.22-2.06-3.29-3.13a1.354,1.354,0,0,0-1.92,1.91Z" transform="translate(1196.482 1012) rotate(180)" fill="#5f3548"/>
    <path id="Path_183" data-name="Path 183" d="M9.76,4.87A4.88,4.88,0,1,1,4.88,0,4.88,4.88,0,0,1,9.76,4.87Z" transform="translate(1217.088 1006.791) rotate(180)" fill="#c51670"/>
    <path id="Path_184" data-name="Path 184" d="M3.02,1.51A1.51,1.51,0,1,1,1.51,0,1.51,1.51,0,0,1,3.02,1.51Z" transform="translate(1220.618 1017.23) rotate(180)" fill="#c51670"/>
    <circle id="Ellipse_24" data-name="Ellipse 24" cx="8.63" cy="8.63" r="8.63" transform="translate(1247.701 1003.202) rotate(157)" fill="#c51670"/>
    <g id="_59847_Converted_" data-name="59847 [Converted]" transform="translate(1213.012 580.887)">
      <g id="Shadow" transform="translate(0 323.51)">
        <g id="Group_4" data-name="Group 4">
          <path id="Path_185" data-name="Path 185" d="M333.872,668.084c-17.417.06-34.834.479-52.251,2.334-6.584.718-12.988,2.274-19.572,2.873-13.108,1.257-26.036,3.591-39.2,4.668-10.594.838-21.248,1.377-31.842,2.454a117.712,117.712,0,0,1-30.764-.9c-7.3-1.257-14.6-1.975-21.786-4.01a91.281,91.281,0,0,0-25.078-3.831c-11.911.06-23.522.12-34.894,4.07-4.01,1.377-8.918,3.711-11.911,6.644-6.943,6.763-7.9,23.582-.958,30.585,11.671,11.791,36.63,16.4,53.029,16.639,17.956.239,35.433-1.077,53.389-1.8,16.7-.718,33.4-1.736,50.1-1.676,34.176.06,68.412,0,102.528-2.215,32.081-2.095,64.222-1.377,96.363-1.377,32.979,0,65.658.239,98.4,4.489,14.245,1.855,28.789,2.514,43.094,3.771,12.809,1.137,25.138,0,37.947-1.077a93.428,93.428,0,0,0,31.123-8.08c7.721-3.591,21.487-14.664,23.821-23.223,6.644-23.881-93.49-23.343-108.872-23.283-17.178.06-34.535.6-51.713,0a123.326,123.326,0,0,1-21.427-3.112c-7-1.5-14.125-1.137-21.248-1.736-29.747-2.634-59.494-2.215-89.3-2.215C353.324,668.143,343.568,668.084,333.872,668.084Z" transform="translate(-60.859 -668.059)" fill="#f1f2f2"/>
        </g>
      </g>
      <g id="Object" transform="translate(13.068)">
        <g id="Group_21" data-name="Group 21">
          <g id="Group_11" data-name="Group 11" transform="translate(0 38.845)">
            <g id="XMLID_800_" transform="translate(141.317 28.042)">
              <path id="Path_186" data-name="Path 186" d="M324.965,241.754l3.651-2.454,4.13,1.855,2.095,3.89-1.436,2.933-3.711,1.616,1.317.479-.359,1.077-5.746,1.915c-1.2-1.5-5.506-3.052-6.1-3.89l4.01-2.753Z" transform="translate(-318.8 -239.3)" fill="#aa6755"/>
            </g>
            <g id="Group_5" data-name="Group 5" transform="translate(30.47 157.623)">
              <path id="Path_187" data-name="Path 187" d="M173.821,470.643,133.6,455.8l8.26,70.566-4.788,60.81-.12.419h.06v.18l7.96.718h0l.3.06,17.716-54.227,9.4-57.758h0Z" transform="translate(-133.6 -455.8)" fill="#1a3151"/>
              <path id="Path_188" data-name="Path 188" d="M144.955,681.979l-8.26-.18-2.095,6.943.239.06h-.06l13.587,8.08,6.524.718.778-7.422-1.736-1.257Z" transform="translate(-134.001 -546.533)" fill="#162a42"/>
            </g>
            <g id="Group_6" data-name="Group 6" transform="translate(56.207 164.626)">
              <path id="Path_189" data-name="Path 189" d="M218.557,476.538l-12.09,120.783-7.96.359-8.02-65.24L176.6,467.5Z" transform="translate(-176.6 -467.5)" fill="#1a3151"/>
              <path id="Path_190" data-name="Path 190" d="M220.177,689l10.594,5.985-1.018,5.028L210.9,697.14l1.137-7.182Z" transform="translate(-190.371 -556.426)" fill="#162a42"/>
            </g>
            <g id="Group_7" data-name="Group 7" transform="translate(0 47.194)">
              <path id="Path_191" data-name="Path 191" d="M199.709,428.114c2.574-1.8,2.574-4.848,2.574-7.96a77.253,77.253,0,0,0-2.394-17.357c-2.514-10.534-5.387-23.283-6.644-36.989-3.232-35.373-14.424-59.075-14.424-59.075l-3.591-9.636c-.718-1.257-1.436-2.514-2.215-3.711-4.489-7.063-12.33-19.093-20.649-21.008-.18-.06-.359-.06-.539-.12-8.8-1.915-20.051-1.017-28.011,3.232a29.592,29.592,0,0,0-4.19,2.993c-3.89,3.112-7.063,4.848-8.739,9.576-1.436,4.13-1.8,8.679-2.574,12.988-1.616,8.738-2.574,17.537-3.89,26.335-2.454,16.459-4.489,32.979-7.122,49.378-1.317,8.439-2.693,16.938-3.352,25.5-.539,7.541-7.362,15.2-11.192,22.026-1.317,2.334,17.836,8.439,19.512,8.858,7.96,1.855,16.4,1.377,24.6,1.436q26.934.09,53.808-1.676c5.925-.419,13.287-1.556,18.554-4.489A2.1,2.1,0,0,1,199.709,428.114Z" transform="translate(-82.692 -271.3)" fill="#eaedef"/>
            </g>
            <path id="Path_192" data-name="Path 192" d="M163.834,271.23s-10.115-2.753-11.492,20.051-3.711,80.5-7,96.3c-3.232,15.8-8.14,46.865-8.14,46.865l30.944,1.077,35.373-2.813s-12.09-22.325-13.946-38.186c-1.855-15.8,1.377-75.414-6.524-97.74C175.147,274.582,173.471,271.649,163.834,271.23Z" transform="translate(-104.575 -224.036)" fill="#8005d8"/>
            <g id="Group_8" data-name="Group 8" transform="translate(76.138 34.865)">
              <path id="Path_193" data-name="Path 193" d="M214.15,289.724l22.564,12.21,13.587-4.609,34.774-38.246-9.217-8.379-36.929,28.849L209.9,266.92Z" transform="translate(-209.9 -250.7)" fill="#eaedef"/>
            </g>
            <g id="Group_10" data-name="Group 10" transform="translate(47.297 9.837)">
              <g id="Group_9" data-name="Group 9">
                <path id="Path_194" data-name="Path 194" d="M198.394,228.166c1.556,4.609-.658,9.517-2.634,13.646-1.736,3.711-2.334,6.165,2.035,7.182,2.454.539,6.823,1.616,8.978-.3,1.616-1.436.718-5.866-.06-7.6-.6-1.317-2.215-2.035-2.813-3.352a4.536,4.536,0,0,1-.3-1.8,23.164,23.164,0,0,1,1.017-7.3,23.123,23.123,0,0,0,1.257-4.848c.18-2.454-1.5-5.267-2.394-7.482-1.676-4.13-7.541-9.7-12.389-6.464a7.182,7.182,0,0,0-2.334,3.232,6.2,6.2,0,0,0-.658,2.274c-.06,3.172,2.873,3.711,4.908,5.267A15.874,15.874,0,0,1,198.394,228.166Z" transform="translate(-172.307 -208.884)" fill="#1a3151"/>
                <path id="Path_195" data-name="Path 195" d="M178.464,249.445c4.25-1.018,7.541-4.549,9.157-8.619s1.676-8.559,1.257-12.868c-1.5-14.425-19.452-13.527-25.5-2.454C158.055,235.08,166.135,252.318,178.464,249.445Z" transform="translate(-161.714 -212.207)" fill="#aa6755"/>
              </g>
              <path id="Path_196" data-name="Path 196" d="M183.988,266.05c-.06,1.616-.12,3.292-.239,4.908a1.207,1.207,0,0,1-.18.658,1.086,1.086,0,0,1-.778.18c-1.317-.06-2.693-.12-4.01-.12a4.06,4.06,0,0,1-1.915-.359c-1.257-.658-1.556-2.454-1.317-3.89.18-1.436.718-2.873.419-4.309,2.753,1.377,5.387-1.736,8.14-.359Z" transform="translate(-167.238 -230.369)" fill="#aa6755"/>
            </g>
            <path id="Path_197" data-name="Path 197" d="M159.82,192.958c-4.728,1.616-7.721,6.344-12.33,8.26-2.634,1.077-5.746,1.257-7.9,3.112-4.848,4.19-.958,13.048-4.908,18.076-.838,1.018-1.915,1.855-2.753,2.873-1.8,2.274-2.035,5.327-2.155,8.2a7.21,7.21,0,0,0,.06,1.975c.6,6.644,10.235,6.225,14.065,5.746,4.19-.479,2.813-2.813,2.813-2.813l-.18-.18a7.928,7.928,0,0,1,2.813-7.242,10.392,10.392,0,0,0,2.274-1.975c1.257-1.915.06-4.429.239-6.644.718-9.1,15.981-7.122,20.29-13.587C177.357,200.8,168.738,189.966,159.82,192.958Z" transform="translate(-101.578 -192.449)" fill="#1a3151"/>
          </g>
          <g id="Group_18" data-name="Group 18" transform="translate(398.325 30.933)">
            <g id="Group_13" data-name="Group 13" transform="translate(0 47.146)">
              <g id="Group_12" data-name="Group 12">
                <path id="Path_198" data-name="Path 198" d="M768.071,270.09l-5.327-2.933-1.377-5.207-1.257-.239-.359,1.5-2.394-3.95L753.826,258l-4.07,2.813-1.556,4.968,3.292,3.771,5.626,1.915,7.063,4.369Z" transform="translate(-748.2 -258)" fill="#eac1a4"/>
              </g>
              <path id="Path_199" data-name="Path 199" d="M776.86,269.308l-7.96,9.4,29.448,28.55,7.96,2.574,33.817-26.934L831.087,264.4l-25.258,21.427Z" transform="translate(-756.51 -260.569)" fill="#eaedef"/>
            </g>
            <g id="Group_16" data-name="Group 16" transform="translate(51.653 138.84)">
              <g id="Group_14" data-name="Group 14" transform="translate(23.522 1.017)">
                <path id="Path_200" data-name="Path 200" d="M965.2,687.487l1.2,5.447-9.337,7.721-6.464-4.309,4.07-6.524,9.4-7.721Z" transform="translate(-904.633 -520.977)" fill="#1a3151"/>
                <path id="Path_201" data-name="Path 201" d="M901.691,412.9l10.414,24.061.958,67.753,21.487,72.841-10,4.429-43.812-84.572L875.775,470.6,873.8,414.157Z" transform="translate(-873.8 -412.9)" fill="#145566"/>
              </g>
              <g id="Group_15" data-name="Group 15">
                <path id="Path_202" data-name="Path 202" d="M835.338,417.6,834.5,488.59,847.907,580.1H858.2l6.464-84.452L878.731,411.2Z" transform="translate(-834.5 -411.2)" fill="#145566"/>
                <path id="Path_203" data-name="Path 203" d="M862.8,691.4v5.566l-11.133,5.566-5.566-5.566,5.566-5.566Z" transform="translate(-839.157 -523.693)" fill="#1a3151"/>
              </g>
            </g>
            <path id="Path_204" data-name="Path 204" d="M846.334,260.617l27.353-1.017s16.34,14.365,24.779,51.593c8.619,37.947-1.616,92.592-1.616,92.592s-73.32-9.756-85.35-11.252L829.815,317.6Z" transform="translate(-773.613 -211.497)" fill="#8005d8"/>
            <g id="Group_17" data-name="Group 17" transform="translate(51.347)">
              <path id="Path_205" data-name="Path 205" d="M877.62,243.065c3.172-.3,6.4-.6,9.576-.958a47.058,47.058,0,0,0-.479-7.661c2.634-.958,5.746-2.334,6.225-5.087a7.729,7.729,0,0,0-.18-2.634c-.6-3.591-1.257-7.242-1.855-10.833a9.357,9.357,0,0,0-1.137-3.591c-1.2-1.855-3.531-2.693-5.686-3.112-5.626-.958-11.731.239-16.041,3.89a8.4,8.4,0,0,0-2.693,3.591c-.778,2.215-.18,4.609.359,6.883.539,2.095,1.077,4.19,1.616,6.225.6,2.394,1.556,5.147,3.831,6.045,1.2.479,2.693.359,3.771,1.077C876.9,238.037,876.6,240.97,877.62,243.065Z" transform="translate(-846.43 -191.131)" fill="#eac1a4"/>
              <path id="Path_206" data-name="Path 206" d="M834,195.013a31.979,31.979,0,0,1,.778-7.242c.838-3.89,5.447-5.626,9.4-5.925,8.559-.6,16.819-4.489,25.2-1.5,4.788,1.736,11.193,2.155,15.562,4.549a13.075,13.075,0,0,1,4.369,4.309,19.2,19.2,0,0,1,0,20.35,30.667,30.667,0,0,1-2.993,3.771c-2.274,2.454-4.968,5.447-8.08,6.344-.06-2.753,2.454-11.552.359-13.826-3.412-3.591-11.013-2.394-15.262-1.5-4.609.958-8.679,4.19-13.227,4.908-3.292.479-7.422-1.137-10.235-2.813C835.552,203.871,834.115,199.5,834,195.013Z" transform="translate(-833.989 -179.23)" fill="#1a3151"/>
            </g>
            <path id="Path_207" data-name="Path 207" d="M861.464,266.077,832.734,380.994,830.4,396.077l35.792,4.728s-1.436-55-.958-62.367,5.806-23.223,6.584-40.281c.479-9.876,3.591-27.652,1.436-33.458Z" transform="translate(-781.201 -213.544)" fill="#c8d6a1"/>
          </g>
          <path id="Path_208" data-name="Path 208" d="M489.7,466.31v31.123a9.914,9.914,0,0,0,.239-1.975V446.2H489.7Z" transform="translate(-246.094 -255.478)" fill="#d9a3a3"/>
          <path id="Path_209" data-name="Path 209" d="M489.539,389.465V359a11.124,11.124,0,0,0-.239,1.975v48.78h.239v-20.29Z" transform="translate(-245.934 -220.47)" fill="#d9a3a3"/>
          <path id="Path_210" data-name="Path 210" d="M465.407,594a8.8,8.8,0,0,0-3.352,1.077A57.258,57.258,0,0,1,452,599.925a56.67,56.67,0,0,0,10.055-4.788A15.842,15.842,0,0,1,465.407,594Z" transform="translate(-230.959 -314.816)" fill="#d9a3a3"/>
          <path id="Path_211" data-name="Path 211" d="M518.307,354.125a59.365,59.365,0,0,1-10.055-4.848A8.8,8.8,0,0,0,504.9,348.2a10.451,10.451,0,0,1,3.292,1.2A76.2,76.2,0,0,0,518.307,354.125Z" transform="translate(-252.197 -216.134)" fill="#d9a3a3"/>
          <path id="Path_212" data-name="Path 212" d="M489.6,604.9v64.4h.239V606.875A5.275,5.275,0,0,0,489.6,604.9Z" transform="translate(-246.054 -319.192)" fill="#d9a3a3"/>
          <path id="Path_213" data-name="Path 213" d="M334.819,412.276a8.456,8.456,0,0,1,1.257,4.668,8.3,8.3,0,0,0-1.257-5.327c-3.412-5.506-5.626-11.611-5.626-17.417C329.014,400.185,331.228,406.53,334.819,412.276Z" transform="translate(-181.651 -234.602)" fill="#d9a3a3"/>
          <path id="Path_214" data-name="Path 214" d="M399.242,396.8c-.3,5.566-3.052,10.833-6.1,16.1A8.548,8.548,0,0,0,392,417.15a8.627,8.627,0,0,1,1.077-3.531C396.309,408.112,399.182,402.606,399.242,396.8Z" transform="translate(-206.871 -235.645)" fill="#d9a3a3"/>
          <path id="Path_215" data-name="Path 215" d="M489.539,241.457V175.2H489.3v64.282A7.434,7.434,0,0,0,489.539,241.457Z" transform="translate(-245.934 -146.679)" fill="#d9a3a3"/>
          <path id="Path_216" data-name="Path 216" d="M384.261,500.86a10.452,10.452,0,0,0-3.292,1.2,72.41,72.41,0,0,1-10.055,4.788c-5.028,1.676-10.175,1.975-15.681-1.017-11.252-6.1-15.442-21.308-8.918-32.32,8.02-13.587,22.564-11.911,34.355-4.609a8.494,8.494,0,0,0,12.749-5.267V412.4h0v-1.436h-.239V412.1H341.227a9.147,9.147,0,0,1-5.147-13.108c3.052-5.327,5.806-10.594,6.1-16.1a17.918,17.918,0,0,0-2.274-8.858c-6.1-11.252-21.248-15.442-32.32-8.978-7,4.13-9.936,9.936-10.175,16.28,0,5.746,2.155,11.911,5.626,17.417a8.38,8.38,0,0,1,1.257,5.327,8.484,8.484,0,0,1-6.4,8.08H252.765a6.27,6.27,0,0,1-.479.658c-3.89,6.344-3.112,11.133,2.693,15.143,3.711,2.574,7.661,4.788,10.893,8.08,4.968,5.087,5.327,8.08,1.5,14.365-4.309,7.063-4.25,7.362,2.334,12.39,1.736,1.377,3.651,2.394,1.137,4.908-3.651,3.771-2.334,7.422.778,10.175,4.429,3.831,5.087,8.8,4.25,14.3-.718,4.788-1.8,9.576-2.693,14.365-2.454,12.868.958,18.913,12.629,22.265,12.15,3.531,24.24.479,36.39-.718,8.14-.778,16.16-3.591,24.48-1.556,5.387,1.317,8.379,4.668,9.1,10.714,1.018,8.8,3.651,17.238,5.147,25.916,1.2,7.063,4.309,9.277,10.654,8.978,5.327-.239,12.988-.359,21.846-.359v-64.4A8.622,8.622,0,0,0,384.261,500.86Z" transform="translate(-149.813 -221.676)" fill="#1a3151"/>
          <path id="Path_217" data-name="Path 217" d="M552.782,196.649a8.517,8.517,0,0,0,13.646,2.155c9.756-9.876,23.522-14.9,34.475-3.531,8.858,9.217,8.32,24.959-1.2,33.518-4.668,4.19-9.756,5.147-15.023,4.669a64.37,64.37,0,0,1-10.893-2.274,11.824,11.824,0,0,0-3.471-.359,8.474,8.474,0,0,0-7.362,8.439l7.063,29.627h0l4.728,19.751h0l.18.718.18.658.239-.06,51.114-12.21a8.47,8.47,0,0,1,7.182,10.833c-2.693,9.157-4.788,18.076,2.215,25.916,8.559,9.517,24.3,10.115,33.517,1.2,11.372-10.953,6.4-24.719-3.471-34.475a8.488,8.488,0,0,1,1.377-13.168l31.243-7.482a108.2,108.2,0,0,0-.359-33.518c-5.387-27.353-16.041-48.541-32.8-63.923-34.415-31.542-74.158-40.161-116.294-33.458a109.564,109.564,0,0,0-11.671,2.574l8.14,34.176Z" transform="translate(-265.245 -127.548)" fill="#145566"/>
          <path id="Path_218" data-name="Path 218" d="M489.7,443.8h0v1.436h0V443.8Z" transform="translate(-246.094 -254.515)" fill="#b5d6ca"/>
          <path id="Path_219" data-name="Path 219" d="M552.515,605.907c7.6-.419,3.89-5.147.419-12.509-28.49-59.853,5.447-108.094,11.013-114.857A120.2,120.2,0,0,0,583.1,446.1H550.9a8.5,8.5,0,0,0-4.369,12.509c7.362,11.791,9.038,26.335-4.609,34.355-11.073,6.464-26.216,2.334-32.32-8.978-5.028-9.277-.9-17.417,3.831-25.677a8.5,8.5,0,0,0-4.489-12.21H456.391v49.259a11.127,11.127,0,0,1-.239,1.975v.239a8.522,8.522,0,0,1-12.749,5.147c-11.791-7.362-26.335-9.038-34.355,4.609-6.464,11.073-1.676,25.916,9.576,32.081a17.908,17.908,0,0,0,15.023,1.2,59.365,59.365,0,0,0,10.055-4.848,8.8,8.8,0,0,1,3.352-1.077c4.309-.778,8.14,1.616,9.157,6.344v.12a11.127,11.127,0,0,1,.239,1.975v62.367C490.687,605.368,543.118,606.445,552.515,605.907Z" transform="translate(-212.546 -255.438)" fill="#8005d8"/>
          <path id="Path_220" data-name="Path 220" d="M483.457,600.467v-.12A7.606,7.606,0,0,0,474.3,594,8.441,8.441,0,0,1,483.457,600.467Z" transform="translate(-239.912 -314.759)" fill="#1a3151"/>
          <path id="Path_221" data-name="Path 221" d="M443.182,536.835c-11.791-7.362-26.335-9.038-34.355,4.609-6.524,11.013-2.334,26.216,8.918,32.32,5.506,2.993,10.654,2.753,15.681,1.017a17.922,17.922,0,0,1-15.023-1.2c-11.252-6.1-16.041-21.008-9.576-32.081,8.02-13.646,22.564-11.971,34.355-4.609a8.5,8.5,0,0,0,12.749-5.147v-.239A8.487,8.487,0,0,1,443.182,536.835Z" transform="translate(-212.385 -289.613)" fill="#1a3151"/>
          <path id="Path_222" data-name="Path 222" d="M442.418,251.273c-8.02-13.587-22.564-11.911-34.355-4.609a8.494,8.494,0,0,1-12.749-5.267,9.914,9.914,0,0,1-.239-1.975V175.2c-17.537.778-34.655,6.1-50.995,14.125-4.429,2.155-8.738,4.549-13.048,6.943-30.106,17.058-46.925,43.274-45.488,81.639.778,21.547-8.8,37.228-22.983,50.4a53.983,53.983,0,0,0-7.182,7.6,12.816,12.816,0,0,0-.778,1.137h45.129a8.555,8.555,0,0,0,5.147-12.749c-3.591-5.746-5.806-12.09-5.566-18.076.239-6.285,3.172-12.15,10.175-16.28,11.073-6.464,26.215-2.334,32.32,8.978a17.3,17.3,0,0,1,2.274,8.858c-.06,5.806-2.933,11.312-6.1,16.819a7.808,7.808,0,0,0-1.077,3.531,8.479,8.479,0,0,0,6.285,8.858h51.952V287.065a9.914,9.914,0,0,1,.239-1.975,8.479,8.479,0,0,1,9.157-6.464,8.8,8.8,0,0,1,3.352,1.077,57.263,57.263,0,0,0,10.055,4.848c5.028,1.676,10.175,1.975,15.681-1.018C444.752,277.488,448.942,262.346,442.418,251.273Z" transform="translate(-151.708 -146.679)" fill="#322740"/>
          <g id="Group_19" data-name="Group 19" transform="translate(397.966 100.943)">
            <path id="Path_223" data-name="Path 223" d="M861.857,296.2,826.9,329.179l-51.892-15.442L771.3,325.408l57.04,26.1H843.3l31.722-26.994Z" transform="translate(-757.115 -296.2)" fill="#eaedef"/>
            <path id="Path_224" data-name="Path 224" d="M762.144,332.882l-9.038.18-5.506-7.781,14.006-7.781,3.89,4.788Z" transform="translate(-747.6 -304.751)" fill="#eac1a4"/>
          </g>
          <g id="Group_20" data-name="Group 20" transform="translate(37.233 109.502)">
            <path id="Path_225" data-name="Path 225" d="M287.08,373.35l-.18,5.267,9.277,3.412,5.327-4.07.06-6.165-5.207-.239-.18-1.377L294.5,369.1Z" transform="translate(-201.909 -334.026)" fill="#aa6755"/>
            <path id="Path_226" data-name="Path 226" d="M152.561,310.5l38.306,32.62,40.7.778s-1.676,17.477-1.616,16.041c0-1.436-45.069,4.369-45.069,4.369L144.9,336.057Z" transform="translate(-144.9 -310.5)" fill="#eaedef"/>
          </g>
        </g>
      </g>
    </g>
    <path id="Path_179" data-name="Path 179" d="M157.94,309.38a2.9,2.9,0,0,1,.41.27l-.27-.21a7,7,0,0,1,1.18,1.25l-.21-.27c.31.4.6.82.9,1.24a1.37,1.37,0,0,0,.8.62,1.42,1.42,0,0,0,1.05-.13,1.39,1.39,0,0,0,.62-.81,1.3,1.3,0,0,0-.14-1c-.43-.61-.85-1.22-1.32-1.8a9.065,9.065,0,0,0-.67-.72,4.718,4.718,0,0,0-1-.73,1.45,1.45,0,0,0-1-.14,1.35,1.35,0,0,0-.33,2.47Z" transform="translate(1740.67 773.382)" fill="#00494c"/>
    <circle id="Ellipse_19" data-name="Ellipse 19" cx="3.87" cy="3.87" r="3.87" transform="translate(1878.18 1082.145)" fill="#00999a"/>
    <path id="Path_138" data-name="Path 138" d="M166.558,185.515a10.042,10.042,0,0,0-1.069,3.752,11.485,11.485,0,0,0,.069,4.134c.49,2.31,2.06,4.07,3.649,5.733.588.618,1.525-.324.937-.942-1.393-1.471-2.785-2.967-3.266-4.978a9.734,9.734,0,0,1-.108-3.595,9.106,9.106,0,0,1,.937-3.433c.446-.731-.7-1.4-1.148-.672Z" transform="translate(1616.108 946.082)" fill="#00494c"/>
    <path id="Path_139" data-name="Path 139" d="M178.581,215.6a4.041,4.041,0,0,0,1.309.8,3.516,3.516,0,0,0,1.407.177.667.667,0,1,0,0-1.329,3.371,3.371,0,0,1-.667,0h.177a2.792,2.792,0,0,1-.412-.088l-.2-.064c-.142-.054.132.064,0,0l-.088-.039a2.945,2.945,0,0,1-.363-.216c-.054-.034-.226-.186-.064-.039-.059-.054-.128-.1-.191-.162a.664.664,0,0,0-.937.942Z" transform="translate(1609.47 931.18)" fill="#00494c"/>
    <path id="Path_159" data-name="Path 159" d="M83.07,215.14a1.63,1.63,0,1,1-.474-1.159A1.64,1.64,0,0,1,83.07,215.14Z" transform="translate(1640.67 932.374)" fill="#00999a"/>
  </g>
</svg>
